<svg width="66" height="77" viewBox="0 0 66 77" fill="none" xmlns="http://www.w3.org/2000/svg">
<path d="M10 0H58C62.4183 0 66 3.58172 66 8V69C66 73.4183 62.4183 77 58 77H10V0Z" fill="#E8E8E8"/>
<path fill-rule="evenodd" clip-rule="evenodd" d="M66 8C66 3.58172 62.4183 0 58 0H10V1H58C61.866 1 65 4.13401 65 8V69C65 72.866 61.866 76 58 76H10V77H58C62.4183 77 66 73.4183 66 69V8Z" fill="black"/>
<path d="M9.00002 1.01316H10V15.1974L9.00002 14.1842V1.01316Z" fill="#E8E8E8"/>
<path d="M9.00002 25.5L10 25.8355V32.4211L9.00002 32.5V25.5Z" fill="#E8E8E8"/>
<path d="M9.00002 43.5658L10 43.0254V51.1307L9.00002 50.2984V43.5658Z" fill="#E8E8E8"/>
<path d="M9.00002 61.3298L10 60.7895V77H9.00002V61.3298Z" fill="#E8E8E8"/>
<path d="M49 0H2V1H49V0Z" fill="black"/>
<path d="M10 76H9L9.00002 77H10V76Z" fill="black"/>
<path d="M10 42V34C10 33.5771 9.89462 33.3517 9.77146 33.2286C9.6483 33.1054 9.42294 33 9.00002 33V32C9.57709 32 10.1017 32.1446 10.4786 32.5214C10.8554 32.8983 11 33.4229 11 34V42C11 42.582 10.8562 43.1083 10.4774 43.4846C10.0992 43.8604 9.57375 44 9.00002 44V43C9.42628 43 9.65083 42.8962 9.77263 42.7752C9.89382 42.6548 10 42.4312 10 42Z" fill="black"/>
<path d="M11 24V16C11 15.4229 10.8554 14.8983 10.4786 14.5214C10.1017 14.1446 9.57709 14 9.00002 14V15C9.42294 15 9.6483 15.1054 9.77146 15.2286C9.89462 15.3517 10 15.5771 10 16V24C10 24.4229 9.89462 24.6483 9.77146 24.7714C9.6483 24.8946 9.42294 25 9.00002 25V26C9.57709 26 10.1017 25.8554 10.4786 25.4786C10.8554 25.1017 11 24.5771 11 24Z" fill="black"/>
<path d="M11 52V60C11 60.582 10.8562 61.1083 10.4774 61.4847C10.0992 61.8604 9.57375 62 9.00002 62V61C9.42628 61 9.65083 60.8962 9.77263 60.7752C9.89382 60.6548 10 60.4312 10 60V52.0197C10 51.5886 9.89375 51.3574 9.76916 51.2312C9.64575 51.1061 9.42128 51 9.00002 51V50C9.57875 50 10.1043 50.1472 10.4809 50.5287C10.852 50.9047 10.9968 51.4258 11 52Z" fill="black"/>
<path d="M1.10269e-05 2C1.10269e-05 0.89543 0.895431 0 2 0H9.00001L9.00002 15H2.00001C0.895442 15 1.10269e-05 14.1046 1.10269e-05 13V2Z" fill="#E8E8E8"/>
<path fill-rule="evenodd" clip-rule="evenodd" d="M1.10269e-05 2V13C1.10269e-05 14.1046 0.895442 15 2.00001 15H9.00002V14H2.00001C1.44773 14 1.00001 13.5523 1.00001 13V2C1.00001 1.44772 1.44772 1 2 1H9.00001V0H2C0.895431 0 1.10269e-05 0.89543 1.10269e-05 2Z" fill="black"/>
<path fill-rule="evenodd" clip-rule="evenodd" d="M1.10269e-05 2V13C1.10269e-05 14.1046 0.895442 15 2.00001 15H9.00002V14H2.00001C1.44773 14 1.00001 13.5523 1.00001 13V2C1.00001 1.44772 1.44772 1 2 1H9.00001V0H2C0.895431 0 1.10269e-05 0.89543 1.10269e-05 2Z" fill="black" fill-opacity="0.2"/>
<path d="M1.10269e-05 55C1.10269e-05 53.8954 0.895442 53 2.00001 53H6.00001C7.10458 53 8.00001 53.8954 8.00001 55V57C8.00001 58.1046 7.10458 59 6.00001 59H2.00001C0.895442 59 1.10269e-05 58.1046 1.10269e-05 57V55Z" fill="#587386"/>
<path d="M1.10269e-05 37C1.10269e-05 35.8954 0.895442 35 2.00001 35H6.00001C7.10458 35 8.00001 35.8954 8.00001 37V39C8.00001 40.1046 7.10458 41 6.00001 41H2.00001C0.895442 41 1.10269e-05 40.1046 1.10269e-05 39V37Z" fill="#587386"/>
<path d="M9.53674e-06 19C9.53674e-06 17.8954 0.89544 17 2.00001 17H6.00001C7.10458 17 8.00001 17.8954 8.00001 19V21C8.00001 22.1046 7.10458 23 6.00001 23H2.00001C0.89544 23 9.53674e-06 22.1046 9.53674e-06 21V19Z" fill="#587386"/>
<path d="M1.00001 55C1.00001 54.4477 1.44772 54 2.00001 54H6.00001C6.55229 54 7.00001 54.4477 7.00001 55V57.0526C7.00001 57.6049 6.55229 58.0526 6.00001 58.0526H2.00001C1.44772 58.0526 1.00001 57.6049 1.00001 57.0526V55Z" fill="#D9D9D9" fill-opacity="0.5"/>
<path d="M1.00001 37C1.00001 36.4477 1.44772 36 2.00001 36H6.00001C6.55229 36 7.00001 36.4477 7.00001 37V39.0526C7.00001 39.6049 6.55229 40.0526 6.00001 40.0526H2.00001C1.44772 40.0526 1.00001 39.6049 1.00001 39.0526V37Z" fill="#D9D9D9" fill-opacity="0.5"/>
<path d="M1 19C1 18.4477 1.44772 18 2 18H6C6.55229 18 7 18.4477 7 19V21.0526C7 21.6049 6.55229 22.0526 6 22.0526H2C1.44772 22.0526 1 21.6049 1 21.0526V19Z" fill="#D9D9D9" fill-opacity="0.5"/>
<path d="M9.00001 1H10V0H9.00001V1Z" fill="black"/>
<path d="M9.00001 1H10V0H9.00001V1Z" fill="black"/>
<path d="M0 45C0 43.8954 0.895431 43 2 43H9.00002V51H2C0.89543 51 0 50.1046 0 49V45Z" fill="#E8E8E8"/>
<path fill-rule="evenodd" clip-rule="evenodd" d="M0 45V49C0 50.1046 0.89543 51 2 51H9.00002V50H2C1.44772 50 1 49.5523 1 49V45C1 44.4477 1.44772 44 2 44H9.00002V43H2C0.895431 43 0 43.8954 0 45Z" fill="black"/>
<path fill-rule="evenodd" clip-rule="evenodd" d="M0 45V49C0 50.1046 0.89543 51 2 51H9.00002V50H2C1.44772 50 1 49.5523 1 49V45C1 44.4477 1.44772 44 2 44H9.00002V43H2C0.895431 43 0 43.8954 0 45Z" fill="black" fill-opacity="0.2"/>
<path d="M0 27C0 25.8954 0.895431 25 2 25H9.00002V33H2C0.89543 33 0 32.1046 0 31V27Z" fill="#E8E8E8"/>
<path fill-rule="evenodd" clip-rule="evenodd" d="M0 27V31C0 32.1046 0.89543 33 2 33H9.00002V32H2C1.44772 32 1 31.5523 1 31V27C1 26.4477 1.44772 26 2 26H9.00002V25H2C0.895431 25 0 25.8954 0 27Z" fill="black"/>
<path fill-rule="evenodd" clip-rule="evenodd" d="M0 27V31C0 32.1046 0.89543 33 2 33H9.00002V32H2C1.44772 32 1 31.5523 1 31V27C1 26.4477 1.44772 26 2 26H9.00002V25H2C0.895431 25 0 25.8954 0 27Z" fill="black" fill-opacity="0.2"/>
<path d="M0 63C0 61.8954 0.895431 61 2 61H9.00002V77H2C0.89543 77 0 76.1046 0 75V63Z" fill="#E8E8E8"/>
<path fill-rule="evenodd" clip-rule="evenodd" d="M0 63V75C0 76.1046 0.89543 77 2 77H9.00002L9 76H2C1.44772 76 1 75.5523 1 75V63C1 62.4477 1.44772 62 2 62H9.00002V61H2C0.895431 61 0 61.8954 0 63Z" fill="black"/>
<path fill-rule="evenodd" clip-rule="evenodd" d="M0 63V75C0 76.1046 0.89543 77 2 77H9.00002L9 76H2C1.44772 76 1 75.5523 1 75V63C1 62.4477 1.44772 62 2 62H9.00002V61H2C0.895431 61 0 61.8954 0 63Z" fill="black" fill-opacity="0.2"/>
<path d="M14 47.1118C14 46.8321 14.2268 46.6053 14.5066 46.6053H55.4934C55.7732 46.6053 56 46.8321 56 47.1118C56 47.3916 55.7732 47.6184 55.4934 47.6184H14.5066C14.2268 47.6184 14 47.3916 14 47.1118Z" fill="black" fill-opacity="0.3"/>
<path d="M14 31.9145C14 31.6347 14.2268 31.4079 14.5066 31.4079H55.4934C55.7732 31.4079 56 31.6347 56 31.9145C56 32.1942 55.7732 32.421 55.4934 32.421H14.5066C14.2268 32.421 14 32.1942 14 31.9145Z" fill="black" fill-opacity="0.3"/>
<path d="M14 16.7171C14 16.4373 14.2268 16.2105 14.5066 16.2105H55.4934C55.7732 16.2105 56 16.4373 56 16.7171C56 16.9969 55.7732 17.2237 55.4934 17.2237H14.5066C14.2268 17.2237 14 16.9969 14 16.7171Z" fill="black" fill-opacity="0.3"/>
<path d="M14 61.2961C14 61.0163 14.2268 60.7895 14.5066 60.7895H55.4934C55.7732 60.7895 56 61.0163 56 61.2961C56 61.5758 55.7732 61.8026 55.4934 61.8026H14.5066C14.2268 61.8026 14 61.5758 14 61.2961Z" fill="black" fill-opacity="0.3"/>
<path d="M20.3214 21.1409C20.0036 20.6904 20.1103 20.0677 20.5599 19.7488L22.2075 18.5801C22.6588 18.2599 23.2842 18.3671 23.6032 18.8192L52.7291 60.1036C53.0469 60.554 52.9402 61.1767 52.4905 61.4957L50.8429 62.6644C50.3917 62.9845 49.7662 62.8773 49.4473 62.4252L20.3214 21.1409Z" fill="#587386"/>
<path d="M18.1018 15.3034C17.9892 14.8528 18.4904 14.5001 18.8678 14.7643L22.1923 17.0915C22.4758 17.2899 22.4766 17.7138 22.1939 17.9158L19.8667 19.578C19.5816 19.7817 19.1845 19.6341 19.0992 19.2929L18.1018 15.3034Z" fill="#C89595"/>
<path d="M17.4242 13.9041C17.3317 13.7069 17.5809 13.5268 17.7429 13.6737L18.4374 14.3034C18.5543 14.4094 18.4729 14.6021 18.3141 14.5997C18.2334 14.5984 18.1621 14.6543 18.1461 14.7325C18.1141 14.8891 17.8982 14.9146 17.8303 14.7698L17.4242 13.9041Z" fill="black"/>
</svg>
